<svg xmlns="http://www.w3.org/2000/svg" width="1536" height="730" style="cursor: move;"><g><path class="link" marker-end="" d="M648,155, 788,315" style="stroke-width: 0.5; stroke-opacity: 0.78; stroke: rgb(80, 80, 80); fill: none;"></path><path class="link" marker-end="" d="M648,155, 788,355" style="stroke-width: 0.5; stroke-opacity: 0.78; stroke: rgb(80, 80, 80); fill: none;"></path><path class="link" marker-end="" d="M648,155, 788,395" style="stroke-width: 0.5; stroke-opacity: 0.78; stroke: rgb(80, 80, 80); fill: none;"></path><path class="link" marker-end="" d="M648,155, 788,435" style="stroke-width: 0.5; stroke-opacity: 0.78; stroke: rgb(80, 80, 80); fill: none;"></path><path class="link" marker-end="" d="M648,195, 788,315" style="stroke-width: 0.5; stroke-opacity: 0.78; stroke: rgb(80, 80, 80); fill: none;"></path><path class="link" marker-end="" d="M648,195, 788,355" style="stroke-width: 0.5; stroke-opacity: 0.78; stroke: rgb(80, 80, 80); fill: none;"></path><path class="link" marker-end="" d="M648,195, 788,395" style="stroke-width: 0.5; stroke-opacity: 0.78; stroke: rgb(80, 80, 80); fill: none;"></path><path class="link" marker-end="" d="M648,195, 788,435" style="stroke-width: 0.5; stroke-opacity: 0.78; stroke: rgb(80, 80, 80); fill: none;"></path><path class="link" marker-end="" d="M648,235, 788,315" style="stroke-width: 0.5; stroke-opacity: 0.78; stroke: rgb(80, 80, 80); fill: none;"></path><path class="link" marker-end="" d="M648,235, 788,355" style="stroke-width: 0.5; stroke-opacity: 0.78; stroke: rgb(80, 80, 80); fill: none;"></path><path class="link" marker-end="" d="M648,235, 788,395" style="stroke-width: 0.5; stroke-opacity: 0.78; stroke: rgb(80, 80, 80); fill: none;"></path><path class="link" marker-end="" d="M648,235, 788,435" style="stroke-width: 0.5; stroke-opacity: 0.78; stroke: rgb(80, 80, 80); fill: none;"></path><path class="link" marker-end="" d="M648,275, 788,315" style="stroke-width: 0.5; stroke-opacity: 0.78; stroke: rgb(80, 80, 80); fill: none;"></path><path class="link" marker-end="" d="M648,275, 788,355" style="stroke-width: 0.5; stroke-opacity: 0.78; stroke: rgb(80, 80, 80); fill: none;"></path><path class="link" marker-end="" d="M648,275, 788,395" style="stroke-width: 0.5; stroke-opacity: 0.78; stroke: rgb(80, 80, 80); fill: none;"></path><path class="link" marker-end="" d="M648,275, 788,435" style="stroke-width: 0.5; stroke-opacity: 0.78; stroke: rgb(80, 80, 80); fill: none;"></path><path class="link" marker-end="" d="M648,315, 788,315" style="stroke-width: 0.5; stroke-opacity: 0.78; stroke: rgb(80, 80, 80); fill: none;"></path><path class="link" marker-end="" d="M648,315, 788,355" style="stroke-width: 0.5; stroke-opacity: 0.78; stroke: rgb(80, 80, 80); fill: none;"></path><path class="link" marker-end="" d="M648,315, 788,395" style="stroke-width: 0.5; stroke-opacity: 0.78; stroke: rgb(80, 80, 80); fill: none;"></path><path class="link" marker-end="" d="M648,315, 788,435" style="stroke-width: 0.5; stroke-opacity: 0.78; stroke: rgb(80, 80, 80); fill: none;"></path><path class="link" marker-end="" d="M648,355, 788,315" style="stroke-width: 0.5; stroke-opacity: 0.78; stroke: rgb(80, 80, 80); fill: none;"></path><path class="link" marker-end="" d="M648,355, 788,355" style="stroke-width: 0.5; stroke-opacity: 0.78; stroke: rgb(80, 80, 80); fill: none;"></path><path class="link" marker-end="" d="M648,355, 788,395" style="stroke-width: 0.5; stroke-opacity: 0.78; stroke: rgb(80, 80, 80); fill: none;"></path><path class="link" marker-end="" d="M648,355, 788,435" style="stroke-width: 0.5; stroke-opacity: 0.78; stroke: rgb(80, 80, 80); fill: none;"></path><path class="link" marker-end="" d="M648,395, 788,315" style="stroke-width: 0.5; stroke-opacity: 0.78; stroke: rgb(80, 80, 80); fill: none;"></path><path class="link" marker-end="" d="M648,395, 788,355" style="stroke-width: 0.5; stroke-opacity: 0.78; stroke: rgb(80, 80, 80); fill: none;"></path><path class="link" marker-end="" d="M648,395, 788,395" style="stroke-width: 0.5; stroke-opacity: 0.78; stroke: rgb(80, 80, 80); fill: none;"></path><path class="link" marker-end="" d="M648,395, 788,435" style="stroke-width: 0.5; stroke-opacity: 0.78; stroke: rgb(80, 80, 80); fill: none;"></path><path class="link" marker-end="" d="M648,435, 788,315" style="stroke-width: 0.5; stroke-opacity: 0.78; stroke: rgb(80, 80, 80); fill: none;"></path><path class="link" marker-end="" d="M648,435, 788,355" style="stroke-width: 0.5; stroke-opacity: 0.78; stroke: rgb(80, 80, 80); fill: none;"></path><path class="link" marker-end="" d="M648,435, 788,395" style="stroke-width: 0.5; stroke-opacity: 0.78; stroke: rgb(80, 80, 80); fill: none;"></path><path class="link" marker-end="" d="M648,435, 788,435" style="stroke-width: 0.5; stroke-opacity: 0.78; stroke: rgb(80, 80, 80); fill: none;"></path><path class="link" marker-end="" d="M648,475, 788,315" style="stroke-width: 0.5; stroke-opacity: 0.78; stroke: rgb(80, 80, 80); fill: none;"></path><path class="link" marker-end="" d="M648,475, 788,355" style="stroke-width: 0.5; stroke-opacity: 0.78; stroke: rgb(80, 80, 80); fill: none;"></path><path class="link" marker-end="" d="M648,475, 788,395" style="stroke-width: 0.5; stroke-opacity: 0.78; stroke: rgb(80, 80, 80); fill: none;"></path><path class="link" marker-end="" d="M648,475, 788,435" style="stroke-width: 0.5; stroke-opacity: 0.78; stroke: rgb(80, 80, 80); fill: none;"></path><path class="link" marker-end="" d="M648,515, 788,315" style="stroke-width: 0.5; stroke-opacity: 0.78; stroke: rgb(80, 80, 80); fill: none;"></path><path class="link" marker-end="" d="M648,515, 788,355" style="stroke-width: 0.5; stroke-opacity: 0.78; stroke: rgb(80, 80, 80); fill: none;"></path><path class="link" marker-end="" d="M648,515, 788,395" style="stroke-width: 0.5; stroke-opacity: 0.78; stroke: rgb(80, 80, 80); fill: none;"></path><path class="link" marker-end="" d="M648,515, 788,435" style="stroke-width: 0.5; stroke-opacity: 0.78; stroke: rgb(80, 80, 80); fill: none;"></path><path class="link" marker-end="" d="M648,555, 788,315" style="stroke-width: 0.5; stroke-opacity: 0.78; stroke: rgb(80, 80, 80); fill: none;"></path><path class="link" marker-end="" d="M648,555, 788,355" style="stroke-width: 0.5; stroke-opacity: 0.78; stroke: rgb(80, 80, 80); fill: none;"></path><path class="link" marker-end="" d="M648,555, 788,395" style="stroke-width: 0.5; stroke-opacity: 0.78; stroke: rgb(80, 80, 80); fill: none;"></path><path class="link" marker-end="" d="M648,555, 788,435" style="stroke-width: 0.5; stroke-opacity: 0.78; stroke: rgb(80, 80, 80); fill: none;"></path><path class="link" marker-end="" d="M788,275, 928,315" style="stroke-width: 0.5; stroke-opacity: 0.78; stroke: rgb(80, 80, 80); fill: none;"></path><path class="link" marker-end="" d="M788,275, 928,355" style="stroke-width: 0.5; stroke-opacity: 0.78; stroke: rgb(80, 80, 80); fill: none;"></path><path class="link" marker-end="" d="M788,275, 928,395" style="stroke-width: 0.5; stroke-opacity: 0.78; stroke: rgb(80, 80, 80); fill: none;"></path><path class="link" marker-end="" d="M788,315, 928,315" style="stroke-width: 0.5; stroke-opacity: 0.78; stroke: rgb(80, 80, 80); fill: none;"></path><path class="link" marker-end="" d="M788,315, 928,355" style="stroke-width: 0.5; stroke-opacity: 0.78; stroke: rgb(80, 80, 80); fill: none;"></path><path class="link" marker-end="" d="M788,315, 928,395" style="stroke-width: 0.5; stroke-opacity: 0.78; stroke: rgb(80, 80, 80); fill: none;"></path><path class="link" marker-end="" d="M788,355, 928,315" style="stroke-width: 0.5; stroke-opacity: 0.78; stroke: rgb(80, 80, 80); fill: none;"></path><path class="link" marker-end="" d="M788,355, 928,355" style="stroke-width: 0.5; stroke-opacity: 0.78; stroke: rgb(80, 80, 80); fill: none;"></path><path class="link" marker-end="" d="M788,355, 928,395" style="stroke-width: 0.5; stroke-opacity: 0.78; stroke: rgb(80, 80, 80); fill: none;"></path><path class="link" marker-end="" d="M788,395, 928,315" style="stroke-width: 0.5; stroke-opacity: 0.78; stroke: rgb(80, 80, 80); fill: none;"></path><path class="link" marker-end="" d="M788,395, 928,355" style="stroke-width: 0.5; stroke-opacity: 0.78; stroke: rgb(80, 80, 80); fill: none;"></path><path class="link" marker-end="" d="M788,395, 928,395" style="stroke-width: 0.5; stroke-opacity: 0.78; stroke: rgb(80, 80, 80); fill: none;"></path><path class="link" marker-end="" d="M788,435, 928,315" style="stroke-width: 0.5; stroke-opacity: 0.78; stroke: rgb(80, 80, 80); fill: none;"></path><path class="link" marker-end="" d="M788,435, 928,355" style="stroke-width: 0.5; stroke-opacity: 0.78; stroke: rgb(80, 80, 80); fill: none;"></path><path class="link" marker-end="" d="M788,435, 928,395" style="stroke-width: 0.5; stroke-opacity: 0.78; stroke: rgb(80, 80, 80); fill: none;"></path><path class="link" marker-end="" d="M648,155, 788,275" style="stroke-width: 0.5; stroke-opacity: 0.78; stroke: rgb(80, 80, 80); fill: none;"></path><path class="link" marker-end="" d="M648,195, 788,275" style="stroke-width: 0.5; stroke-opacity: 0.78; stroke: rgb(80, 80, 80); fill: none;"></path><path class="link" marker-end="" d="M648,235, 788,275" style="stroke-width: 0.5; stroke-opacity: 0.78; stroke: rgb(80, 80, 80); fill: none;"></path><path class="link" marker-end="" d="M648,275, 788,275" style="stroke-width: 0.5; stroke-opacity: 0.78; stroke: rgb(80, 80, 80); fill: none;"></path><path class="link" marker-end="" d="M648,315, 788,275" style="stroke-width: 0.5; stroke-opacity: 0.78; stroke: rgb(80, 80, 80); fill: none;"></path><path class="link" marker-end="" d="M648,355, 788,275" style="stroke-width: 0.5; stroke-opacity: 0.78; stroke: rgb(80, 80, 80); fill: none;"></path><path class="link" marker-end="" d="M648,395, 788,275" style="stroke-width: 0.5; stroke-opacity: 0.78; stroke: rgb(80, 80, 80); fill: none;"></path><path class="link" marker-end="" d="M648,435, 788,275" style="stroke-width: 0.5; stroke-opacity: 0.78; stroke: rgb(80, 80, 80); fill: none;"></path><path class="link" marker-end="" d="M648,475, 788,275" style="stroke-width: 0.5; stroke-opacity: 0.78; stroke: rgb(80, 80, 80); fill: none;"></path><path class="link" marker-end="" d="M648,515, 788,275" style="stroke-width: 0.5; stroke-opacity: 0.78; stroke: rgb(80, 80, 80); fill: none;"></path><path class="link" marker-end="" d="M648,555, 788,275" style="stroke-width: 0.5; stroke-opacity: 0.78; stroke: rgb(80, 80, 80); fill: none;"></path><circle r="10" class="node" id="0_0" cx="648" cy="155" style="fill: rgb(255, 255, 255); stroke: rgb(51, 51, 51);"></circle><circle r="10" class="node" id="0_1" cx="648" cy="195" style="fill: rgb(255, 255, 255); stroke: rgb(51, 51, 51);"></circle><circle r="10" class="node" id="0_2" cx="648" cy="235" style="fill: rgb(255, 255, 255); stroke: rgb(51, 51, 51);"></circle><circle r="10" class="node" id="0_3" cx="648" cy="275" style="fill: rgb(255, 255, 255); stroke: rgb(51, 51, 51);"></circle><circle r="10" class="node" id="0_4" cx="648" cy="315" style="fill: rgb(255, 255, 255); stroke: rgb(51, 51, 51);"></circle><circle r="10" class="node" id="0_5" cx="648" cy="355" style="fill: rgb(255, 255, 255); stroke: rgb(51, 51, 51);"></circle><circle r="10" class="node" id="0_6" cx="648" cy="395" style="fill: rgb(255, 255, 255); stroke: rgb(51, 51, 51);"></circle><circle r="10" class="node" id="0_7" cx="648" cy="435" style="fill: rgb(255, 255, 255); stroke: rgb(51, 51, 51);"></circle><circle r="10" class="node" id="0_8" cx="648" cy="475" style="fill: rgb(255, 255, 255); stroke: rgb(51, 51, 51);"></circle><circle r="10" class="node" id="0_9" cx="648" cy="515" style="fill: rgb(255, 255, 255); stroke: rgb(51, 51, 51);"></circle><circle r="10" class="node" id="0_10" cx="648" cy="555" style="fill: rgb(255, 255, 255); stroke: rgb(51, 51, 51);"></circle><circle r="10" class="node" id="1_0" cx="788" cy="275" style="fill: rgb(255, 255, 255); stroke: rgb(51, 51, 51);"></circle><circle r="10" class="node" id="1_1" cx="788" cy="315" style="fill: rgb(255, 255, 255); stroke: rgb(51, 51, 51);"></circle><circle r="10" class="node" id="1_2" cx="788" cy="355" style="fill: rgb(255, 255, 255); stroke: rgb(51, 51, 51);"></circle><circle r="10" class="node" id="1_3" cx="788" cy="395" style="fill: rgb(255, 255, 255); stroke: rgb(51, 51, 51);"></circle><circle r="10" class="node" id="1_4" cx="788" cy="435" style="fill: rgb(255, 255, 255); stroke: rgb(51, 51, 51);"></circle><circle r="10" class="node" id="2_0" cx="928" cy="315" style="fill: rgb(255, 255, 255); stroke: rgb(51, 51, 51);"></circle><circle r="10" class="node" id="2_1" cx="928" cy="355" style="fill: rgb(255, 255, 255); stroke: rgb(51, 51, 51);"></circle><circle r="10" class="node" id="2_2" cx="928" cy="395" style="fill: rgb(255, 255, 255); stroke: rgb(51, 51, 51);"></circle><text class="text" dy=".35em" x="613" y="595" style="font-size: 12px;">Input Layer ∈ ℝ¹¹</text><text class="text" dy=".35em" x="753" y="595" style="font-size: 12px;">Hidden Layer ∈ ℝ⁵</text><text class="text" dy=".35em" x="893" y="595" style="font-size: 12px;">Output Layer ∈ ℝ³</text></g><defs><marker id="arrow" viewBox="0 -5 10 10" markerWidth="7" markerHeight="7" orient="auto" refX="40"><path d="M0,-5L10,0L0,5" style="stroke: rgb(80, 80, 80); fill: none;"></path></marker></defs></svg>